<svg xmlns="http://www.w3.org/2000/svg" fill="currentColor" viewBox="0 0 24 24"><path d="M12 .5C5.73.5.5 5.73.5 12c0 5.08 3.29 9.39 7.85 10.92.57.1.78-.25.78-.55v-2.01c-3.19.69-3.87-1.54-3.87-1.54-.52-1.31-1.27-1.66-1.27-1.66-1.04-.71.08-.7.08-.7 1.15.08 1.75 1.19 1.75 1.19 1.02 1.75 2.67 1.25 3.32.96.1-.74.4-1.25.72-1.54-2.55-.3-5.23-1.28-5.23-5.68 0-1.26.45-2.3 1.18-3.11-.12-.29-.52-1.47.11-3.05 0 0 .98-.31 3.2 1.18a11.17 11.17 0 0 1 5.82 0c2.22-1.49 3.2-1.18 3.2-1.18.63 1.58.23 2.76.12 3.05.73.81 1.18 1.85 1.18 3.11 0 4.41-2.69 5.38-5.25 5.67.42.36.77 1.07.77 2.15v3.19c0 .31.21.66.79.55A10.52 10.52 0 0 0 23.5 12C23.5 5.73 18.27.5 12 .5z"/></svg>