<svg xmlns="http://www.w3.org/2000/svg" fill="currentColor" viewBox="0 0 24 24"><path d="M24 4.557a9.834 9.834 0 0 1-2.828.775 4.932 4.932 0 0 0 2.165-2.723 9.87 9.87 0 0 1-3.127 1.195A4.92 4.92 0 0 0 16.616 3c-2.73 0-4.942 2.21-4.942 4.942 0 .39.044.765.127 1.126C7.728 8.883 4.1 6.907 1.67 3.88a4.936 4.936 0 0 0-.666 2.482c0 1.71.87 3.216 2.188 4.102a4.92 4.92 0 0 1-2.237-.616v.062a4.936 4.936 0 0 0 3.96 4.835 4.96 4.96 0 0 1-2.23.085 4.94 4.94 0 0 0 4.604 3.42A9.867 9.867 0 0 1 0 19.54a13.94 13.94 0 0 0 7.548 2.212c9.057 0 14.009-7.503 14.009-14.009 0-.213-.005-.425-.014-.636A10.012 10.012 0 0 0 24 4.557z"/></svg>